<?xml version="1.0" encoding="UTF-8"?>
<svg width="163px" height="46px" viewBox="0 0 163 46" version="1.1" xmlns="http://www.w3.org/2000/svg" xmlns:xlink="http://www.w3.org/1999/xlink">
    <!-- Generator: Sketch 47.1 (45422) - http://www.bohemiancoding.com/sketch -->
    <title>Pliim.</title>
    <desc>Created with Sketch.</desc>
    <defs></defs>
    <g id="Page-1" stroke="none" stroke-width="1" fill="none" fill-rule="evenodd">
        <g id="01-copy-10" transform="translate(-153.000000, -199.000000)" fill="#FFFFFF">
            <path d="M153.56,239.86 L153.56,206.56 C153.56,202.18 155.84,200.8 159.32,200.8 L174.38,200.8 C182.66,200.8 189.32,204.88 189.32,214.48 C189.32,222.34 183.86,228.16 174.32,228.16 L163.4,228.16 L163.4,239.86 C163.4,242.8 161.48,244.78 158.48,244.78 C155.48,244.78 153.56,242.8 153.56,239.86 Z M163.4,208.36 L163.4,220.6 L172.58,220.6 C176.54,220.6 179.48,218.2 179.48,214.48 C179.48,210.16 176.42,208.36 171.56,208.36 L163.4,208.36 Z M196.2,240.4 C196.2,243.28 197.94,244.78 200.58,244.78 C203.22,244.78 204.96,243.28 204.96,240.4 L204.96,204.4 C204.96,201.52 203.22,200.02 200.58,200.02 C197.94,200.02 196.2,201.52 196.2,204.4 L196.2,240.4 Z M213.88,240.4 C213.88,242.74 214.84,244.78 218.26,244.78 C221.68,244.78 222.64,242.74 222.64,240.4 L222.64,216.22 C222.64,213.88 221.68,211.84 218.26,211.84 C214.84,211.84 213.88,213.88 213.88,216.22 L213.88,240.4 Z M213.7,204.34 C213.7,206.86 215.74,208.9 218.26,208.9 C220.78,208.9 222.82,206.86 222.82,204.34 C222.82,201.82 220.78,199.78 218.26,199.78 C215.74,199.78 213.7,201.82 213.7,204.34 Z M231.56,240.4 C231.56,242.74 232.52,244.78 235.94,244.78 C239.36,244.78 240.32,242.74 240.32,240.4 L240.32,216.22 C240.32,213.88 239.36,211.84 235.94,211.84 C232.52,211.84 231.56,213.88 231.56,216.22 L231.56,240.4 Z M231.38,204.34 C231.38,206.86 233.42,208.9 235.94,208.9 C238.46,208.9 240.5,206.86 240.5,204.34 C240.5,201.82 238.46,199.78 235.94,199.78 C233.42,199.78 231.38,201.82 231.38,204.34 Z M248.76,240.4 C248.76,242.74 249.72,244.78 253.14,244.78 C256.56,244.78 257.52,242.74 257.52,240.4 L257.52,225.82 C257.52,221.74 260.52,219.04 263.88,219.04 C267.3,219.04 268.68,221.56 268.68,224.68 L268.68,240.4 C268.68,242.74 269.64,244.78 273.06,244.78 C276.48,244.78 277.44,242.74 277.44,240.4 L277.44,225.82 C277.44,221.74 280.44,219.04 283.8,219.04 C287.22,219.04 288.6,221.56 288.6,224.68 L288.6,240.4 C288.6,242.74 289.56,244.78 292.98,244.78 C296.4,244.78 297.36,242.74 297.36,240.4 L297.36,222.46 C297.36,214.6 292.5,211.84 286.44,211.84 C281.7,211.84 278.58,213.94 276.12,217.36 C274.5,213.22 270.72,211.84 267.72,211.84 C263.28,211.84 259.44,213.88 257.16,217.36 L257.04,217.36 L257.04,216.22 C257.04,213.58 255.48,211.84 252.9,211.84 C250.32,211.84 248.76,213.58 248.76,216.22 L248.76,240.4 Z M306.1,239.5 C306.1,242.2 308.32,244.42 311.02,244.42 C313.72,244.42 315.94,242.2 315.94,239.5 C315.94,236.8 313.72,234.58 311.02,234.58 C308.32,234.58 306.1,236.8 306.1,239.5 Z" id="Pliim."></path>
        </g>
    </g>
</svg>